<svg width="472" height="98" viewBox="0 0 472 98" fill="none" xmlns="http://www.w3.org/2000/svg">
<rect x="3" y="3" width="466" height="92" fill="#384C69" stroke="white" stroke-width="6"/>
<path d="M25.04 65.585C23.78 65.585 23.15 64.865 23.15 63.425V43.985H45.92V63.425C45.92 64.865 45.29 65.585 44.03 65.585C42.77 65.585 42.14 64.865 42.14 63.425V47.765H26.93V63.425C26.93 64.865 26.3 65.585 25.04 65.585ZM63.2218 65.27C60.3418 65.27 58.0468 65.015 56.3368 64.505C54.6418 63.98 53.4193 63.1175 52.6693 61.9175C51.9343 60.7025 51.5668 59.06 51.5668 56.99V52.265C51.5668 50.195 51.9343 48.56 52.6693 47.36C53.4193 46.145 54.6418 45.2825 56.3368 44.7725C58.0468 44.2475 60.3418 43.985 63.2218 43.985H64.5268C67.4068 43.985 69.6943 44.2475 71.3893 44.7725C73.0843 45.2975 74.2993 46.1675 75.0343 47.3825C75.7693 48.5825 76.1368 50.21 76.1368 52.265V54.695H55.3468V56.855C55.3468 58.175 55.5268 59.1725 55.8868 59.8475C56.2618 60.5075 57.0118 60.95 58.1368 61.175C59.2618 61.385 60.9568 61.49 63.2218 61.49H70.1518C70.8568 61.49 71.3218 61.3625 71.5468 61.1075C71.7868 60.8525 71.9068 60.35 71.9068 59.6C71.9068 58.85 72.0718 58.265 72.4018 57.845C72.7468 57.425 73.2193 57.215 73.8193 57.215C74.4343 57.23 74.8993 57.4625 75.2143 57.9125C75.5293 58.3475 75.6868 58.97 75.6868 59.78C75.6868 61.025 75.4993 62.06 75.1243 62.885C74.7493 63.695 74.1718 64.295 73.3918 64.685C72.6268 65.075 71.6518 65.27 70.4668 65.27H63.2218ZM55.3693 50.915H72.3343C72.1693 49.595 71.6368 48.755 70.7368 48.395C70.1968 48.185 69.3943 48.0275 68.3293 47.9225C67.2793 47.8175 66.0118 47.765 64.5268 47.765H63.2218C61.6018 47.765 60.2593 47.825 59.1943 47.945C58.1443 48.05 57.3718 48.215 56.8768 48.44C55.9768 48.815 55.4743 49.64 55.3693 50.915ZM83.3533 73.46C82.1233 73.46 81.5083 72.695 81.5083 71.165V45.83C81.5083 44.39 82.1533 43.67 83.4433 43.67C84.1183 43.67 84.5833 43.88 84.8383 44.3C85.1083 44.72 85.2433 45.44 85.2433 46.46V47.81L84.5683 46.91C85.5133 45.875 86.7058 45.1325 88.1458 44.6825C89.6008 44.2175 91.2733 43.985 93.1633 43.985H94.4683C97.3483 43.985 99.6358 44.2475 101.331 44.7725C103.026 45.2975 104.241 46.1675 104.976 47.3825C105.711 48.5825 106.078 50.21 106.078 52.265V56.99C106.078 59.045 105.711 60.68 104.976 61.895C104.241 63.095 103.033 63.9575 101.353 64.4825C99.6883 65.0075 97.4383 65.27 94.6033 65.27H85.2883V71.165C85.2883 72.695 84.6433 73.46 83.3533 73.46ZM85.2883 61.49H94.6033C96.8233 61.49 98.4808 61.385 99.5758 61.175C100.671 60.95 101.398 60.5075 101.758 59.8475C102.118 59.1725 102.298 58.175 102.298 56.855V52.4C102.298 51.065 102.111 50.0675 101.736 49.4075C101.376 48.7475 100.633 48.3125 99.5083 48.1025C98.3983 47.8775 96.7183 47.765 94.4683 47.765H93.1633C90.4483 47.765 88.4533 48.32 87.1783 49.43C85.9183 50.525 85.2883 52.235 85.2883 54.56V61.49ZM122.68 65.27C119.8 65.27 117.505 65.015 115.795 64.505C114.1 63.98 112.877 63.1175 112.127 61.9175C111.392 60.7025 111.025 59.06 111.025 56.99V52.265C111.025 50.195 111.392 48.56 112.127 47.36C112.877 46.145 114.1 45.2825 115.795 44.7725C117.505 44.2475 119.8 43.985 122.68 43.985H123.985C126.865 43.985 129.152 44.2475 130.847 44.7725C132.542 45.2975 133.757 46.1675 134.492 47.3825C135.227 48.5825 135.595 50.21 135.595 52.265V54.695H114.805V56.855C114.805 58.175 114.985 59.1725 115.345 59.8475C115.72 60.5075 116.47 60.95 117.595 61.175C118.72 61.385 120.415 61.49 122.68 61.49H129.61C130.315 61.49 130.78 61.3625 131.005 61.1075C131.245 60.8525 131.365 60.35 131.365 59.6C131.365 58.85 131.53 58.265 131.86 57.845C132.205 57.425 132.677 57.215 133.277 57.215C133.892 57.23 134.357 57.4625 134.672 57.9125C134.987 58.3475 135.145 58.97 135.145 59.78C135.145 61.025 134.957 62.06 134.582 62.885C134.207 63.695 133.63 64.295 132.85 64.685C132.085 65.075 131.11 65.27 129.925 65.27H122.68ZM114.827 50.915H131.792C131.627 49.595 131.095 48.755 130.195 48.395C129.655 48.185 128.852 48.0275 127.787 47.9225C126.737 47.8175 125.47 47.765 123.985 47.765H122.68C121.06 47.765 119.717 47.825 118.652 47.945C117.602 48.05 116.83 48.215 116.335 48.44C115.435 48.815 114.932 49.64 114.827 50.915ZM141.011 65.27V43.985H156.176C158.696 43.985 160.669 44.5325 162.094 45.6275C163.519 46.7075 164.231 48.215 164.231 50.15C164.231 51.125 164.059 51.9725 163.714 52.6925C163.369 53.4125 162.859 53.9975 162.184 54.4475C163.549 55.5575 164.231 57.095 164.231 59.06C164.231 60.35 163.909 61.46 163.264 62.39C162.619 63.32 161.696 64.0325 160.496 64.5275C159.296 65.0225 157.856 65.27 156.176 65.27H141.011ZM144.791 61.49H155.861C158.921 61.49 160.451 60.77 160.451 59.33C160.451 58.175 160.114 57.365 159.439 56.9C158.779 56.42 157.646 56.18 156.041 56.18H144.791V61.49ZM144.791 52.4H156.041C157.871 52.4 159.071 52.2425 159.641 51.9275C160.211 51.5975 160.496 50.93 160.496 49.925C160.496 48.485 158.951 47.765 155.861 47.765H144.791V52.4ZM180.907 65.27C178.027 65.27 175.732 65.015 174.022 64.505C172.327 63.98 171.105 63.1175 170.355 61.9175C169.62 60.7025 169.252 59.06 169.252 56.99V52.265C169.252 50.195 169.62 48.56 170.355 47.36C171.105 46.145 172.327 45.2825 174.022 44.7725C175.732 44.2475 178.027 43.985 180.907 43.985H182.212C185.092 43.985 187.38 44.2475 189.075 44.7725C190.77 45.2975 191.985 46.1675 192.72 47.3825C193.455 48.5825 193.822 50.21 193.822 52.265V54.695H173.032V56.855C173.032 58.175 173.212 59.1725 173.572 59.8475C173.947 60.5075 174.697 60.95 175.822 61.175C176.947 61.385 178.642 61.49 180.907 61.49H187.837C188.542 61.49 189.007 61.3625 189.232 61.1075C189.472 60.8525 189.592 60.35 189.592 59.6C189.592 58.85 189.757 58.265 190.087 57.845C190.432 57.425 190.905 57.215 191.505 57.215C192.12 57.23 192.585 57.4625 192.9 57.9125C193.215 58.3475 193.372 58.97 193.372 59.78C193.372 61.025 193.185 62.06 192.81 62.885C192.435 63.695 191.857 64.295 191.077 64.685C190.312 65.075 189.337 65.27 188.152 65.27H180.907ZM173.055 50.915H190.02C189.855 49.595 189.322 48.755 188.422 48.395C187.882 48.185 187.08 48.0275 186.015 47.9225C184.965 47.8175 183.697 47.765 182.212 47.765H180.907C179.287 47.765 177.945 47.825 176.88 47.945C175.83 48.05 175.057 48.215 174.562 48.44C173.662 48.815 173.16 49.64 173.055 50.915ZM201.039 73.46C199.809 73.46 199.194 72.695 199.194 71.165V45.83C199.194 44.39 199.839 43.67 201.129 43.67C201.804 43.67 202.269 43.88 202.524 44.3C202.794 44.72 202.929 45.44 202.929 46.46V47.81L202.254 46.91C203.199 45.875 204.391 45.1325 205.831 44.6825C207.286 44.2175 208.959 43.985 210.849 43.985H212.154C215.034 43.985 217.321 44.2475 219.016 44.7725C220.711 45.2975 221.926 46.1675 222.661 47.3825C223.396 48.5825 223.764 50.21 223.764 52.265V56.99C223.764 59.045 223.396 60.68 222.661 61.895C221.926 63.095 220.719 63.9575 219.039 64.4825C217.374 65.0075 215.124 65.27 212.289 65.27H202.974V71.165C202.974 72.695 202.329 73.46 201.039 73.46ZM202.974 61.49H212.289C214.509 61.49 216.166 61.385 217.261 61.175C218.356 60.95 219.084 60.5075 219.444 59.8475C219.804 59.1725 219.984 58.175 219.984 56.855V52.4C219.984 51.065 219.796 50.0675 219.421 49.4075C219.061 48.7475 218.319 48.3125 217.194 48.1025C216.084 47.8775 214.404 47.765 212.154 47.765H210.849C208.134 47.765 206.139 48.32 204.864 49.43C203.604 50.525 202.974 52.235 202.974 54.56V61.49ZM231.23 65.585C229.97 65.585 229.34 64.865 229.34 63.425V45.875C229.34 44.405 229.94 43.67 231.14 43.67C232.46 43.67 233.12 44.405 233.12 45.875V52.13H248.33V45.875C248.33 44.405 248.96 43.67 250.22 43.67C251.48 43.67 252.11 44.405 252.11 45.875V63.425C252.11 64.865 251.48 65.585 250.22 65.585C248.96 65.585 248.33 64.865 248.33 63.425V55.91H233.12V63.425C233.12 64.865 232.49 65.585 231.23 65.585ZM279.225 65.585C277.965 65.585 277.335 64.805 277.335 63.245V49.34L261.878 65.27H258.345V45.875C258.345 44.405 258.975 43.67 260.235 43.67C261.495 43.67 262.125 44.45 262.125 46.01V60.095L277.718 43.985H281.115V63.38C281.115 64.85 280.485 65.585 279.225 65.585ZM312.254 65.27H305.909C304.724 65.27 303.741 65.075 302.961 64.685C302.196 64.28 301.626 63.665 301.251 62.84C300.876 62.015 300.689 60.98 300.689 59.735C300.689 58.925 300.846 58.3025 301.161 57.8675C301.491 57.4325 301.964 57.215 302.579 57.215C303.179 57.215 303.644 57.425 303.974 57.845C304.304 58.265 304.469 58.85 304.469 59.6C304.469 60.35 304.589 60.8525 304.829 61.1075C305.069 61.3625 305.534 61.49 306.224 61.49H312.254C314.504 61.49 316.191 61.385 317.316 61.175C318.441 60.95 319.191 60.515 319.566 59.87C319.941 59.225 320.129 58.265 320.129 56.99V56.18H310.769C309.209 56.18 308.429 55.58 308.429 54.38C308.429 53.06 309.209 52.4 310.769 52.4H320.129V52.22C320.129 50.945 319.941 49.9925 319.566 49.3625C319.191 48.7175 318.441 48.29 317.316 48.08C316.206 47.87 314.519 47.765 312.254 47.765H306.224C305.534 47.765 305.069 47.9 304.829 48.17C304.589 48.44 304.469 48.95 304.469 49.7C304.469 51.26 303.839 52.04 302.579 52.04C301.319 52.04 300.689 51.2 300.689 49.52C300.689 48.26 300.876 47.225 301.251 46.415C301.626 45.59 302.196 44.9825 302.961 44.5925C303.741 44.1875 304.724 43.985 305.909 43.985H312.254C315.134 43.985 317.421 44.2475 319.116 44.7725C320.826 45.2825 322.049 46.145 322.784 47.36C323.534 48.56 323.909 50.195 323.909 52.265V56.99C323.909 59.06 323.534 60.7025 322.784 61.9175C322.049 63.1175 320.826 63.98 319.116 64.505C317.421 65.015 315.134 65.27 312.254 65.27ZM331.337 65.585C330.782 65.585 330.332 65.39 329.987 65C329.657 64.61 329.492 64.115 329.492 63.515V45.74C329.492 45.11 329.672 44.6075 330.032 44.2325C330.392 43.8575 330.872 43.67 331.472 43.67C332.012 43.67 332.447 43.865 332.777 44.255C333.107 44.63 333.272 45.125 333.272 45.74V52.715H337.592C337.892 52.715 338.252 52.49 338.672 52.04C339.107 51.59 339.722 50.7725 340.517 49.5875C341.132 48.7025 341.829 47.81 342.609 46.91C343.404 46.01 344.417 45.2375 345.647 44.5925C346.892 43.9475 348.272 43.625 349.787 43.625C350.492 43.625 351.054 43.79 351.474 44.12C351.909 44.45 352.127 44.915 352.127 45.515C352.127 46.145 351.924 46.6175 351.519 46.9325C351.129 47.2475 350.552 47.405 349.787 47.405C349.007 47.405 348.242 47.705 347.492 48.305C346.757 48.905 345.857 49.9625 344.792 51.4775C344.522 51.8525 344.259 52.205 344.004 52.535C343.764 52.85 343.532 53.1425 343.307 53.4125C343.097 53.6675 342.887 53.9 342.677 54.11C343.847 54.62 344.904 55.325 345.849 56.225C346.809 57.125 347.454 58.04 347.784 58.97C348.144 59.9 348.497 60.605 348.842 61.085C349.187 61.565 349.502 61.805 349.787 61.805C350.492 61.805 351.054 61.9775 351.474 62.3225C351.909 62.6675 352.127 63.125 352.127 63.695C352.127 64.955 351.347 65.585 349.787 65.585C348.737 65.585 347.829 65.4275 347.064 65.1125C346.299 64.7975 345.692 64.3175 345.242 63.6725C344.792 63.0575 344.424 62.4575 344.139 61.8725C343.854 61.2875 343.524 60.695 343.149 60.095C342.774 59.48 342.227 58.8575 341.507 58.2275C340.262 57.0725 338.117 56.495 335.072 56.495H333.272V63.56C333.272 64.175 333.099 64.6625 332.754 65.0225C332.409 65.3975 331.937 65.585 331.337 65.585ZM358.715 73.46C357.485 73.46 356.87 72.695 356.87 71.165V45.83C356.87 44.39 357.515 43.67 358.805 43.67C359.48 43.67 359.945 43.88 360.2 44.3C360.47 44.72 360.605 45.44 360.605 46.46V47.81L359.93 46.91C360.875 45.875 362.067 45.1325 363.507 44.6825C364.962 44.2175 366.635 43.985 368.525 43.985H369.83C372.71 43.985 374.997 44.2475 376.692 44.7725C378.387 45.2975 379.602 46.1675 380.337 47.3825C381.072 48.5825 381.44 50.21 381.44 52.265V56.99C381.44 59.045 381.072 60.68 380.337 61.895C379.602 63.095 378.395 63.9575 376.715 64.4825C375.05 65.0075 372.8 65.27 369.965 65.27H360.65V71.165C360.65 72.695 360.005 73.46 358.715 73.46ZM360.65 61.49H369.965C372.185 61.49 373.842 61.385 374.937 61.175C376.032 60.95 376.76 60.5075 377.12 59.8475C377.48 59.1725 377.66 58.175 377.66 56.855V52.4C377.66 51.065 377.472 50.0675 377.097 49.4075C376.737 48.7475 375.995 48.3125 374.87 48.1025C373.76 47.8775 372.08 47.765 369.83 47.765H368.525C365.81 47.765 363.815 48.32 362.54 49.43C361.28 50.525 360.65 52.235 360.65 54.56V61.49ZM405.781 65.585C405.406 65.585 405.099 65.4725 404.859 65.2475C404.619 65.0375 404.439 64.58 404.319 63.875C404.214 63.17 404.161 62.09 404.161 60.635L404.656 61.805C403.711 63.11 402.526 64.0175 401.101 64.5275C399.691 65.0225 398.026 65.27 396.106 65.27H391.921C390.286 65.27 388.951 64.73 387.916 63.65C386.896 62.555 386.386 60.905 386.386 58.7C386.386 57.32 386.611 56.1575 387.061 55.2125C387.511 54.2525 388.209 53.48 389.154 52.895C390.099 52.295 391.306 51.86 392.776 51.59C394.246 51.32 396.001 51.185 398.041 51.185H405.646L403.936 52.715V49.385C403.936 48.725 403.824 48.29 403.599 48.08C403.389 47.87 402.916 47.765 402.181 47.765H395.836C394.321 47.765 393.159 47.8025 392.349 47.8775C391.554 47.9525 390.999 48.1025 390.684 48.3275C390.369 48.5375 390.196 48.845 390.166 49.25C390.106 50.03 389.964 50.6075 389.739 50.9825C389.514 51.3575 389.026 51.545 388.276 51.545C387.016 51.545 386.386 50.735 386.386 49.115C386.386 47.33 387.129 46.0325 388.614 45.2225C390.099 44.3975 392.401 43.985 395.521 43.985H402.496C404.416 43.985 405.766 44.4425 406.546 45.3575C407.326 46.2725 407.716 47.855 407.716 50.105V63.425C407.716 64.865 407.071 65.585 405.781 65.585ZM392.056 61.67H396.106C398.941 61.67 400.951 61.1 402.136 59.96C403.336 58.805 403.936 56.99 403.936 54.515L404.206 54.785H398.041C396.061 54.785 394.494 54.8825 393.339 55.0775C392.199 55.2575 391.381 55.6175 390.886 56.1575C390.406 56.6975 390.166 57.5 390.166 58.565C390.166 59.525 390.331 60.2825 390.661 60.8375C391.006 61.3925 391.471 61.67 392.056 61.67ZM415.625 65.585C414.365 65.585 413.735 64.865 413.735 63.425V45.875C413.735 44.405 414.335 43.67 415.535 43.67C416.855 43.67 417.515 44.405 417.515 45.875V52.13H432.725V45.875C432.725 44.405 433.355 43.67 434.615 43.67C435.875 43.67 436.505 44.405 436.505 45.875V63.425C436.505 64.865 435.875 65.585 434.615 65.585C433.355 65.585 432.725 64.865 432.725 63.425V55.91H417.515V63.425C417.515 64.865 416.885 65.585 415.625 65.585Z" fill="white"/>
</svg>
